<?xml version="1.0" standalone="no"?>
 <!DOCTYPE svg PUBLIC "-//W3C//DTD SVG 1.1//EN" 
 "http://www.w3.org/Graphics/SVG/1.1/DTD/svg11.dtd"> 
<svg
  xmlns:svg="http://www.w3.org/2000/svg"
  xmlns="http://www.w3.org/2000/svg"
  xmlns:xlink="http://www.w3.org/1999/xlink"
  version="1.1"
  width="29.700220cm" height="21.000720cm" viewBox="0 0 116930 82680">
<title>SVG Picture created as flipflop-F_Cu.svg date 2021/09/05 20:40:17 </title>
  <desc>Picture generated by PCBNEW </desc>
<g style="fill:#000000; fill-opacity:1;stroke:#000000; stroke-opacity:1;
stroke-linecap:round; stroke-linejoin:round;"
 transform="translate(0 0) scale(1 1)">
</g>
<g style="fill:#000000; fill-opacity:0.0; 
stroke:#000000; stroke-width:-0.000393701; stroke-opacity:1; 
stroke-linecap:round; stroke-linejoin:round;">
</g>
<g style="fill:#000000; fill-opacity:0.0; 
stroke:#000000; stroke-width:39.3701; stroke-opacity:1; 
stroke-linecap:round; stroke-linejoin:round;">
</g>
<g style="fill:#000000; fill-opacity:0.0; 
stroke:#000000; stroke-width:59.0551; stroke-opacity:1; 
stroke-linecap:round; stroke-linejoin:round;">
<rect x="69685.9" y="65357.2" width="42519.7" height="12598.4" rx="0" />
</g>
<g style="fill:#000000; fill-opacity:0.0; 
stroke:#000000; stroke-width:39.3701; stroke-opacity:1; 
stroke-linecap:round; stroke-linejoin:round;">
</g>
<g style="fill:#000000; fill-opacity:0.0; 
stroke:#000000; stroke-width:59.0551; stroke-opacity:1; 
stroke-linecap:round; stroke-linejoin:round;">
<rect x="3937.01" y="3937.01" width="109056" height="74806" rx="0" />
</g>
<g style="fill:#000000; fill-opacity:0.0; 
stroke:#000000; stroke-width:39.3701; stroke-opacity:1; 
stroke-linecap:round; stroke-linejoin:round;">
</g>
<g style="fill:#000000; fill-opacity:0.0; 
stroke:#000000; stroke-width:59.0551; stroke-opacity:1; 
stroke-linecap:round; stroke-linejoin:round;">
<rect x="4724.41" y="4724.41" width="107481" height="73231.2" rx="0" />
</g>
<g style="fill:#000000; fill-opacity:0.0; 
stroke:#000000; stroke-width:39.3701; stroke-opacity:1; 
stroke-linecap:round; stroke-linejoin:round;">
</g>
<g style="fill:#000000; fill-opacity:0.0; 
stroke:#000000; stroke-width:59.0551; stroke-opacity:1; 
stroke-linecap:round; stroke-linejoin:round;">
<path d="M23622 4724
L23622 3937
" />
</g>
<g style="fill:#000000; fill-opacity:0.0; 
stroke:#000000; stroke-width:39.3701; stroke-opacity:1; 
stroke-linecap:round; stroke-linejoin:round;">
</g>
<g style="fill:#000000; fill-opacity:0.0; 
stroke:#000000; stroke-width:59.0551; stroke-opacity:1; 
stroke-linecap:round; stroke-linejoin:round;">
<path d="M43307 4724
L43307 3937
" />
</g>
<g style="fill:#000000; fill-opacity:0.0; 
stroke:#000000; stroke-width:39.3701; stroke-opacity:1; 
stroke-linecap:round; stroke-linejoin:round;">
</g>
<g style="fill:#000000; fill-opacity:0.0; 
stroke:#000000; stroke-width:59.0551; stroke-opacity:1; 
stroke-linecap:round; stroke-linejoin:round;">
<path d="M62992 4724
L62992 3937
" />
</g>
<g style="fill:#000000; fill-opacity:0.0; 
stroke:#000000; stroke-width:39.3701; stroke-opacity:1; 
stroke-linecap:round; stroke-linejoin:round;">
</g>
<g style="fill:#000000; fill-opacity:0.0; 
stroke:#000000; stroke-width:59.0551; stroke-opacity:1; 
stroke-linecap:round; stroke-linejoin:round;">
<path d="M82677 4724
L82677 3937
" />
</g>
<g style="fill:#000000; fill-opacity:0.0; 
stroke:#000000; stroke-width:39.3701; stroke-opacity:1; 
stroke-linecap:round; stroke-linejoin:round;">
</g>
<g style="fill:#000000; fill-opacity:0.0; 
stroke:#000000; stroke-width:59.0551; stroke-opacity:1; 
stroke-linecap:round; stroke-linejoin:round;">
<path d="M102362 4724
L102362 3937
" />
</g>
<g style="fill:#000000; fill-opacity:0.0; 
stroke:#000000; stroke-width:39.3701; stroke-opacity:1; 
stroke-linecap:round; stroke-linejoin:round;">
</g>
<g style="fill:#000000; fill-opacity:0.0; 
stroke:#000000; stroke-width:59.0551; stroke-opacity:1; 
stroke-linecap:round; stroke-linejoin:round;">
<text x="13779.5" y="4586.61"
textLength="487.439" font-size="682.415" lengthAdjust="spacingAndGlyphs"
text-anchor="start" opacity="0">1</text>
<path d="M14199 4562
L13906 4562
" />
<path d="M14052 4562
L14052 4050
L14004 4123
L13955 4172
L13906 4196
" />
</g>
<g style="fill:#000000; fill-opacity:0.0; 
stroke:#000000; stroke-width:39.3701; stroke-opacity:1; 
stroke-linecap:round; stroke-linejoin:round;">
</g>
<g style="fill:#000000; fill-opacity:0.0; 
stroke:#000000; stroke-width:59.0551; stroke-opacity:1; 
stroke-linecap:round; stroke-linejoin:round;">
<text x="33464.6" y="4586.61"
textLength="546.494" font-size="682.415" lengthAdjust="spacingAndGlyphs"
text-anchor="start" opacity="0">2</text>
<path d="M33591 4099
L33615 4074
L33664 4050
L33786 4050
L33835 4074
L33859 4099
L33884 4147
L33884 4196
L33859 4269
L33567 4562
L33884 4562
" />
</g>
<g style="fill:#000000; fill-opacity:0.0; 
stroke:#000000; stroke-width:39.3701; stroke-opacity:1; 
stroke-linecap:round; stroke-linejoin:round;">
</g>
<g style="fill:#000000; fill-opacity:0.0; 
stroke:#000000; stroke-width:59.0551; stroke-opacity:1; 
stroke-linecap:round; stroke-linejoin:round;">
<text x="53149.6" y="4586.61"
textLength="546.494" font-size="682.415" lengthAdjust="spacingAndGlyphs"
text-anchor="start" opacity="0">3</text>
<path d="M53252 4050
L53569 4050
L53398 4245
L53471 4245
L53520 4269
L53544 4294
L53569 4342
L53569 4464
L53544 4513
L53520 4537
L53471 4562
L53325 4562
L53276 4537
L53252 4513
" />
</g>
<g style="fill:#000000; fill-opacity:0.0; 
stroke:#000000; stroke-width:39.3701; stroke-opacity:1; 
stroke-linecap:round; stroke-linejoin:round;">
</g>
<g style="fill:#000000; fill-opacity:0.0; 
stroke:#000000; stroke-width:59.0551; stroke-opacity:1; 
stroke-linecap:round; stroke-linejoin:round;">
<text x="72834.6" y="4586.61"
textLength="546.494" font-size="682.415" lengthAdjust="spacingAndGlyphs"
text-anchor="start" opacity="0">4</text>
<path d="M73205 4221
L73205 4562
" />
<path d="M73083 4026
L72961 4391
L73278 4391
" />
</g>
<g style="fill:#000000; fill-opacity:0.0; 
stroke:#000000; stroke-width:39.3701; stroke-opacity:1; 
stroke-linecap:round; stroke-linejoin:round;">
</g>
<g style="fill:#000000; fill-opacity:0.0; 
stroke:#000000; stroke-width:59.0551; stroke-opacity:1; 
stroke-linecap:round; stroke-linejoin:round;">
<text x="92519.7" y="4586.61"
textLength="546.494" font-size="682.415" lengthAdjust="spacingAndGlyphs"
text-anchor="start" opacity="0">5</text>
<path d="M92914 4050
L92671 4050
L92646 4294
L92671 4269
L92719 4245
L92841 4245
L92890 4269
L92914 4294
L92939 4342
L92939 4464
L92914 4513
L92890 4537
L92841 4562
L92719 4562
L92671 4537
L92646 4513
" />
</g>
<g style="fill:#000000; fill-opacity:0.0; 
stroke:#000000; stroke-width:39.3701; stroke-opacity:1; 
stroke-linecap:round; stroke-linejoin:round;">
</g>
<g style="fill:#000000; fill-opacity:0.0; 
stroke:#000000; stroke-width:59.0551; stroke-opacity:1; 
stroke-linecap:round; stroke-linejoin:round;">
<text x="112205" y="4586.61"
textLength="546.494" font-size="682.415" lengthAdjust="spacingAndGlyphs"
text-anchor="start" opacity="0">6</text>
<path d="M112575 4050
L112477 4050
L112429 4074
L112404 4099
L112356 4172
L112331 4269
L112331 4464
L112356 4513
L112380 4537
L112429 4562
L112526 4562
L112575 4537
L112599 4513
L112624 4464
L112624 4342
L112599 4294
L112575 4269
L112526 4245
L112429 4245
L112380 4269
L112356 4294
L112331 4342
" />
</g>
<g style="fill:#000000; fill-opacity:0.0; 
stroke:#000000; stroke-width:39.3701; stroke-opacity:1; 
stroke-linecap:round; stroke-linejoin:round;">
</g>
<g style="fill:#000000; fill-opacity:0.0; 
stroke:#000000; stroke-width:59.0551; stroke-opacity:1; 
stroke-linecap:round; stroke-linejoin:round;">
<path d="M23622 77955
L23622 78742
" />
</g>
<g style="fill:#000000; fill-opacity:0.0; 
stroke:#000000; stroke-width:39.3701; stroke-opacity:1; 
stroke-linecap:round; stroke-linejoin:round;">
</g>
<g style="fill:#000000; fill-opacity:0.0; 
stroke:#000000; stroke-width:59.0551; stroke-opacity:1; 
stroke-linecap:round; stroke-linejoin:round;">
<path d="M43307 77955
L43307 78742
" />
</g>
<g style="fill:#000000; fill-opacity:0.0; 
stroke:#000000; stroke-width:39.3701; stroke-opacity:1; 
stroke-linecap:round; stroke-linejoin:round;">
</g>
<g style="fill:#000000; fill-opacity:0.0; 
stroke:#000000; stroke-width:59.0551; stroke-opacity:1; 
stroke-linecap:round; stroke-linejoin:round;">
<path d="M62992 77955
L62992 78742
" />
</g>
<g style="fill:#000000; fill-opacity:0.0; 
stroke:#000000; stroke-width:39.3701; stroke-opacity:1; 
stroke-linecap:round; stroke-linejoin:round;">
</g>
<g style="fill:#000000; fill-opacity:0.0; 
stroke:#000000; stroke-width:59.0551; stroke-opacity:1; 
stroke-linecap:round; stroke-linejoin:round;">
<path d="M82677 77955
L82677 78742
" />
</g>
<g style="fill:#000000; fill-opacity:0.0; 
stroke:#000000; stroke-width:39.3701; stroke-opacity:1; 
stroke-linecap:round; stroke-linejoin:round;">
</g>
<g style="fill:#000000; fill-opacity:0.0; 
stroke:#000000; stroke-width:59.0551; stroke-opacity:1; 
stroke-linecap:round; stroke-linejoin:round;">
<path d="M102362 77955
L102362 78742
" />
</g>
<g style="fill:#000000; fill-opacity:0.0; 
stroke:#000000; stroke-width:39.3701; stroke-opacity:1; 
stroke-linecap:round; stroke-linejoin:round;">
</g>
<g style="fill:#000000; fill-opacity:0.0; 
stroke:#000000; stroke-width:59.0551; stroke-opacity:1; 
stroke-linecap:round; stroke-linejoin:round;">
<text x="13779.5" y="78605.2"
textLength="546.494" font-size="682.415" lengthAdjust="spacingAndGlyphs"
text-anchor="start" opacity="0">1</text>
<path d="M14199 78580
L13906 78580
" />
<path d="M14052 78580
L14052 78069
L14004 78142
L13955 78190
L13906 78215
" />
</g>
<g style="fill:#000000; fill-opacity:0.0; 
stroke:#000000; stroke-width:39.3701; stroke-opacity:1; 
stroke-linecap:round; stroke-linejoin:round;">
</g>
<g style="fill:#000000; fill-opacity:0.0; 
stroke:#000000; stroke-width:59.0551; stroke-opacity:1; 
stroke-linecap:round; stroke-linejoin:round;">
<text x="33464.6" y="78605.2"
textLength="546.494" font-size="682.415" lengthAdjust="spacingAndGlyphs"
text-anchor="start" opacity="0">2</text>
<path d="M33591 78117
L33615 78093
L33664 78069
L33786 78069
L33835 78093
L33859 78117
L33884 78166
L33884 78215
L33859 78288
L33567 78580
L33884 78580
" />
</g>
<g style="fill:#000000; fill-opacity:0.0; 
stroke:#000000; stroke-width:39.3701; stroke-opacity:1; 
stroke-linecap:round; stroke-linejoin:round;">
</g>
<g style="fill:#000000; fill-opacity:0.0; 
stroke:#000000; stroke-width:59.0551; stroke-opacity:1; 
stroke-linecap:round; stroke-linejoin:round;">
<text x="53149.6" y="78605.2"
textLength="546.494" font-size="682.415" lengthAdjust="spacingAndGlyphs"
text-anchor="start" opacity="0">3</text>
<path d="M53252 78069
L53569 78069
L53398 78263
L53471 78263
L53520 78288
L53544 78312
L53569 78361
L53569 78483
L53544 78532
L53520 78556
L53471 78580
L53325 78580
L53276 78556
L53252 78532
" />
</g>
<g style="fill:#000000; fill-opacity:0.0; 
stroke:#000000; stroke-width:39.3701; stroke-opacity:1; 
stroke-linecap:round; stroke-linejoin:round;">
</g>
<g style="fill:#000000; fill-opacity:0.0; 
stroke:#000000; stroke-width:59.0551; stroke-opacity:1; 
stroke-linecap:round; stroke-linejoin:round;">
<text x="72834.6" y="78605.2"
textLength="546.494" font-size="682.415" lengthAdjust="spacingAndGlyphs"
text-anchor="start" opacity="0">4</text>
<path d="M73205 78239
L73205 78580
" />
<path d="M73083 78044
L72961 78410
L73278 78410
" />
</g>
<g style="fill:#000000; fill-opacity:0.0; 
stroke:#000000; stroke-width:39.3701; stroke-opacity:1; 
stroke-linecap:round; stroke-linejoin:round;">
</g>
<g style="fill:#000000; fill-opacity:0.0; 
stroke:#000000; stroke-width:59.0551; stroke-opacity:1; 
stroke-linecap:round; stroke-linejoin:round;">
<text x="92519.7" y="78605.2"
textLength="546.494" font-size="682.415" lengthAdjust="spacingAndGlyphs"
text-anchor="start" opacity="0">5</text>
<path d="M92914 78069
L92671 78069
L92646 78312
L92671 78288
L92719 78263
L92841 78263
L92890 78288
L92914 78312
L92939 78361
L92939 78483
L92914 78532
L92890 78556
L92841 78580
L92719 78580
L92671 78556
L92646 78532
" />
</g>
<g style="fill:#000000; fill-opacity:0.0; 
stroke:#000000; stroke-width:39.3701; stroke-opacity:1; 
stroke-linecap:round; stroke-linejoin:round;">
</g>
<g style="fill:#000000; fill-opacity:0.0; 
stroke:#000000; stroke-width:59.0551; stroke-opacity:1; 
stroke-linecap:round; stroke-linejoin:round;">
<text x="112205" y="78605.2"
textLength="546.494" font-size="682.415" lengthAdjust="spacingAndGlyphs"
text-anchor="start" opacity="0">6</text>
<path d="M112575 78069
L112477 78069
L112429 78093
L112404 78117
L112356 78190
L112331 78288
L112331 78483
L112356 78532
L112380 78556
L112429 78580
L112526 78580
L112575 78556
L112599 78532
L112624 78483
L112624 78361
L112599 78312
L112575 78288
L112526 78263
L112429 78263
L112380 78288
L112356 78312
L112331 78361
" />
</g>
<g style="fill:#000000; fill-opacity:0.0; 
stroke:#000000; stroke-width:39.3701; stroke-opacity:1; 
stroke-linecap:round; stroke-linejoin:round;">
</g>
<g style="fill:#000000; fill-opacity:0.0; 
stroke:#000000; stroke-width:59.0551; stroke-opacity:1; 
stroke-linecap:round; stroke-linejoin:round;">
<path d="M3937 23622
L4724 23622
" />
</g>
<g style="fill:#000000; fill-opacity:0.0; 
stroke:#000000; stroke-width:39.3701; stroke-opacity:1; 
stroke-linecap:round; stroke-linejoin:round;">
</g>
<g style="fill:#000000; fill-opacity:0.0; 
stroke:#000000; stroke-width:59.0551; stroke-opacity:1; 
stroke-linecap:round; stroke-linejoin:round;">
<path d="M3937 43307
L4724 43307
" />
</g>
<g style="fill:#000000; fill-opacity:0.0; 
stroke:#000000; stroke-width:39.3701; stroke-opacity:1; 
stroke-linecap:round; stroke-linejoin:round;">
</g>
<g style="fill:#000000; fill-opacity:0.0; 
stroke:#000000; stroke-width:59.0551; stroke-opacity:1; 
stroke-linecap:round; stroke-linejoin:round;">
<path d="M3937 62992
L4724 62992
" />
</g>
<g style="fill:#000000; fill-opacity:0.0; 
stroke:#000000; stroke-width:39.3701; stroke-opacity:1; 
stroke-linecap:round; stroke-linejoin:round;">
</g>
<g style="fill:#000000; fill-opacity:0.0; 
stroke:#000000; stroke-width:59.0551; stroke-opacity:1; 
stroke-linecap:round; stroke-linejoin:round;">
<text x="4330.71" y="14035.4"
textLength="497.75" font-size="682.415" lengthAdjust="spacingAndGlyphs"
text-anchor="middle" opacity="0">A</text>
<path d="M4208 13864
L4452 13864
" />
<path d="M4160 14011
L4330 13499
L4501 14011
" />
</g>
<g style="fill:#000000; fill-opacity:0.0; 
stroke:#000000; stroke-width:39.3701; stroke-opacity:1; 
stroke-linecap:round; stroke-linejoin:round;">
</g>
<g style="fill:#000000; fill-opacity:0.0; 
stroke:#000000; stroke-width:59.0551; stroke-opacity:1; 
stroke-linecap:round; stroke-linejoin:round;">
<text x="4330.71" y="33720.5"
textLength="570.866" font-size="682.415" lengthAdjust="spacingAndGlyphs"
text-anchor="middle" opacity="0">B</text>
<path d="M4367 33428
L4440 33452
L4464 33476
L4489 33525
L4489 33598
L4464 33647
L4440 33671
L4391 33696
L4196 33696
L4196 33184
L4367 33184
L4416 33208
L4440 33233
L4464 33281
L4464 33330
L4440 33379
L4416 33403
L4367 33428
L4196 33428
" />
</g>
<g style="fill:#000000; fill-opacity:0.0; 
stroke:#000000; stroke-width:39.3701; stroke-opacity:1; 
stroke-linecap:round; stroke-linejoin:round;">
</g>
<g style="fill:#000000; fill-opacity:0.0; 
stroke:#000000; stroke-width:59.0551; stroke-opacity:1; 
stroke-linecap:round; stroke-linejoin:round;">
<text x="4330.71" y="53405.5"
textLength="570.866" font-size="682.415" lengthAdjust="spacingAndGlyphs"
text-anchor="middle" opacity="0">C</text>
<path d="M4489 53332
L4464 53356
L4391 53381
L4342 53381
L4269 53356
L4221 53308
L4196 53259
L4172 53161
L4172 53088
L4196 52991
L4221 52942
L4269 52893
L4342 52869
L4391 52869
L4464 52893
L4489 52918
" />
</g>
<g style="fill:#000000; fill-opacity:0.0; 
stroke:#000000; stroke-width:39.3701; stroke-opacity:1; 
stroke-linecap:round; stroke-linejoin:round;">
</g>
<g style="fill:#000000; fill-opacity:0.0; 
stroke:#000000; stroke-width:59.0551; stroke-opacity:1; 
stroke-linecap:round; stroke-linejoin:round;">
<text x="4330.71" y="73090.6"
textLength="570.866" font-size="682.415" lengthAdjust="spacingAndGlyphs"
text-anchor="middle" opacity="0">D</text>
<path d="M4196 73066
L4196 72554
L4318 72554
L4391 72578
L4440 72627
L4464 72676
L4489 72773
L4489 72846
L4464 72944
L4440 72993
L4391 73041
L4318 73066
L4196 73066
" />
</g>
<g style="fill:#000000; fill-opacity:0.0; 
stroke:#000000; stroke-width:39.3701; stroke-opacity:1; 
stroke-linecap:round; stroke-linejoin:round;">
</g>
<g style="fill:#000000; fill-opacity:0.0; 
stroke:#000000; stroke-width:59.0551; stroke-opacity:1; 
stroke-linecap:round; stroke-linejoin:round;">
<path d="M112992 23622
L112205 23622
" />
</g>
<g style="fill:#000000; fill-opacity:0.0; 
stroke:#000000; stroke-width:39.3701; stroke-opacity:1; 
stroke-linecap:round; stroke-linejoin:round;">
</g>
<g style="fill:#000000; fill-opacity:0.0; 
stroke:#000000; stroke-width:59.0551; stroke-opacity:1; 
stroke-linecap:round; stroke-linejoin:round;">
<path d="M112992 43307
L112205 43307
" />
</g>
<g style="fill:#000000; fill-opacity:0.0; 
stroke:#000000; stroke-width:39.3701; stroke-opacity:1; 
stroke-linecap:round; stroke-linejoin:round;">
</g>
<g style="fill:#000000; fill-opacity:0.0; 
stroke:#000000; stroke-width:59.0551; stroke-opacity:1; 
stroke-linecap:round; stroke-linejoin:round;">
<path d="M112992 62992
L112205 62992
" />
</g>
<g style="fill:#000000; fill-opacity:0.0; 
stroke:#000000; stroke-width:39.3701; stroke-opacity:1; 
stroke-linecap:round; stroke-linejoin:round;">
</g>
<g style="fill:#000000; fill-opacity:0.0; 
stroke:#000000; stroke-width:59.0551; stroke-opacity:1; 
stroke-linecap:round; stroke-linejoin:round;">
<text x="112599" y="14035.4"
textLength="497.75" font-size="682.415" lengthAdjust="spacingAndGlyphs"
text-anchor="middle" opacity="0">A</text>
<path d="M112477 13864
L112721 13864
" />
<path d="M112428 14011
L112599 13499
L112769 14011
" />
</g>
<g style="fill:#000000; fill-opacity:0.0; 
stroke:#000000; stroke-width:39.3701; stroke-opacity:1; 
stroke-linecap:round; stroke-linejoin:round;">
</g>
<g style="fill:#000000; fill-opacity:0.0; 
stroke:#000000; stroke-width:59.0551; stroke-opacity:1; 
stroke-linecap:round; stroke-linejoin:round;">
<text x="112599" y="33720.5"
textLength="570.866" font-size="682.415" lengthAdjust="spacingAndGlyphs"
text-anchor="middle" opacity="0">B</text>
<path d="M112635 33428
L112708 33452
L112733 33476
L112757 33525
L112757 33598
L112733 33647
L112708 33671
L112660 33696
L112465 33696
L112465 33184
L112635 33184
L112684 33208
L112708 33233
L112733 33281
L112733 33330
L112708 33379
L112684 33403
L112635 33428
L112465 33428
" />
</g>
<g style="fill:#000000; fill-opacity:0.0; 
stroke:#000000; stroke-width:39.3701; stroke-opacity:1; 
stroke-linecap:round; stroke-linejoin:round;">
</g>
<g style="fill:#000000; fill-opacity:0.0; 
stroke:#000000; stroke-width:59.0551; stroke-opacity:1; 
stroke-linecap:round; stroke-linejoin:round;">
<text x="112599" y="53405.5"
textLength="570.866" font-size="682.415" lengthAdjust="spacingAndGlyphs"
text-anchor="middle" opacity="0">C</text>
<path d="M112757 53332
L112733 53356
L112660 53381
L112611 53381
L112538 53356
L112489 53308
L112465 53259
L112440 53161
L112440 53088
L112465 52991
L112489 52942
L112538 52893
L112611 52869
L112660 52869
L112733 52893
L112757 52918
" />
</g>
<g style="fill:#000000; fill-opacity:0.0; 
stroke:#000000; stroke-width:39.3701; stroke-opacity:1; 
stroke-linecap:round; stroke-linejoin:round;">
</g>
<g style="fill:#000000; fill-opacity:0.0; 
stroke:#000000; stroke-width:59.0551; stroke-opacity:1; 
stroke-linecap:round; stroke-linejoin:round;">
<text x="112599" y="73090.6"
textLength="570.866" font-size="682.415" lengthAdjust="spacingAndGlyphs"
text-anchor="middle" opacity="0">D</text>
<path d="M112465 73066
L112465 72554
L112587 72554
L112660 72578
L112708 72627
L112733 72676
L112757 72773
L112757 72846
L112733 72944
L112708 72993
L112660 73041
L112587 73066
L112465 73066
" />
</g>
<g style="fill:#000000; fill-opacity:0.0; 
stroke:#000000; stroke-width:39.3701; stroke-opacity:1; 
stroke-linecap:round; stroke-linejoin:round;">
</g>
<g style="fill:#000000; fill-opacity:0.0; 
stroke:#000000; stroke-width:59.0551; stroke-opacity:1; 
stroke-linecap:round; stroke-linejoin:round;">
<text x="78741" y="76321.7"
textLength="2758.72" font-size="787.402" lengthAdjust="spacingAndGlyphs"
text-anchor="start" opacity="0">Date: </text>
<path d="M78911 76293
L78911 75703
L79051 75703
L79136 75731
L79192 75787
L79220 75843
L79248 75956
L79248 76040
L79220 76153
L79192 76209
L79136 76265
L79051 76293
L78911 76293
" />
<path d="M79754 76293
L79754 75984
L79726 75928
L79670 75899
L79557 75899
L79501 75928
" />
<path d="M79754 76265
L79698 76293
L79557 76293
L79501 76265
L79473 76209
L79473 76153
L79501 76096
L79557 76068
L79698 76068
L79754 76040
" />
<path d="M79951 75899
L80176 75899
" />
<path d="M80036 75703
L80036 76209
L80064 76265
L80120 76293
L80176 76293
" />
<path d="M80598 76265
L80542 76293
L80429 76293
L80373 76265
L80345 76209
L80345 75984
L80373 75928
L80429 75899
L80542 75899
L80598 75928
L80626 75984
L80626 76040
L80345 76096
" />
<path d="M80879 76237
L80907 76265
L80879 76293
L80851 76265
L80879 76237
L80879 76293
" />
<path d="M80879 75928
L80907 75956
L80879 75984
L80851 75956
L80879 75928
L80879 75984
" />
</g>
<g style="fill:#000000; fill-opacity:0.0; 
stroke:#000000; stroke-width:39.3701; stroke-opacity:1; 
stroke-linecap:round; stroke-linejoin:round;">
</g>
<g style="fill:#000000; fill-opacity:0.0; 
stroke:#000000; stroke-width:59.0551; stroke-opacity:1; 
stroke-linecap:round; stroke-linejoin:round;">
<path d="M69685 76577
L112205 76577
" />
</g>
<g style="fill:#000000; fill-opacity:0.0; 
stroke:#000000; stroke-width:39.3701; stroke-opacity:1; 
stroke-linecap:round; stroke-linejoin:round;">
</g>
<g style="fill:#000000; fill-opacity:0.0; 
stroke:#000000; stroke-width:59.0551; stroke-opacity:1; 
stroke-linecap:round; stroke-linejoin:round;">
<text x="70079.6" y="77424.1"
textLength="12910.6" font-size="787.402" lengthAdjust="spacingAndGlyphs"
text-anchor="start" opacity="0">KiCad E.D.A.  pcbnew 5.1.10</text>
<path d="M70249 77395
L70249 76805
" />
<path d="M70587 77395
L70334 77058
" />
<path d="M70587 76805
L70249 77142
" />
<path d="M70840 77395
L70840 77002
" />
<path d="M70840 76805
L70812 76833
L70840 76861
L70868 76833
L70840 76805
L70840 76861
" />
<path d="M71458 77339
L71430 77367
L71346 77395
L71290 77395
L71205 77367
L71149 77311
L71121 77255
L71093 77142
L71093 77058
L71121 76946
L71149 76889
L71205 76833
L71290 76805
L71346 76805
L71430 76833
L71458 76861
" />
<path d="M71965 77395
L71965 77086
L71937 77030
L71880 77002
L71768 77002
L71712 77030
" />
<path d="M71965 77367
L71908 77395
L71768 77395
L71712 77367
L71683 77311
L71683 77255
L71712 77199
L71768 77171
L71908 77171
L71965 77142
" />
<path d="M72499 77395
L72499 76805
" />
<path d="M72499 77367
L72443 77395
L72330 77395
L72274 77367
L72246 77339
L72218 77283
L72218 77114
L72246 77058
L72274 77030
L72330 77002
L72443 77002
L72499 77030
" />
<path d="M73230 77086
L73427 77086
" />
<path d="M73511 77395
L73230 77395
L73230 76805
L73511 76805
" />
<path d="M73764 77339
L73793 77367
L73764 77395
L73736 77367
L73764 77339
L73764 77395
" />
<path d="M74046 77395
L74046 76805
L74186 76805
L74271 76833
L74327 76889
L74355 76946
L74383 77058
L74383 77142
L74355 77255
L74327 77311
L74271 77367
L74186 77395
L74046 77395
" />
<path d="M74636 77339
L74664 77367
L74636 77395
L74608 77367
L74636 77339
L74636 77395
" />
<path d="M74889 77227
L75171 77227
" />
<path d="M74833 77395
L75030 76805
L75227 77395
" />
<path d="M75424 77339
L75452 77367
L75424 77395
L75395 77367
L75424 77339
L75424 77395
" />
<path d="M76605 77002
L76605 77592
" />
<path d="M76605 77030
L76661 77002
L76773 77002
L76830 77030
L76858 77058
L76886 77114
L76886 77283
L76858 77339
L76830 77367
L76773 77395
L76661 77395
L76605 77367
" />
<path d="M77392 77367
L77336 77395
L77223 77395
L77167 77367
L77139 77339
L77111 77283
L77111 77114
L77139 77058
L77167 77030
L77223 77002
L77336 77002
L77392 77030
" />
<path d="M77645 77395
L77645 76805
" />
<path d="M77645 77030
L77701 77002
L77814 77002
L77870 77030
L77898 77058
L77926 77114
L77926 77283
L77898 77339
L77870 77367
L77814 77395
L77701 77395
L77645 77367
" />
<path d="M78180 77002
L78180 77395
" />
<path d="M78180 77058
L78208 77030
L78264 77002
L78348 77002
L78404 77030
L78433 77086
L78433 77395
" />
<path d="M78939 77367
L78883 77395
L78770 77395
L78714 77367
L78686 77311
L78686 77086
L78714 77030
L78770 77002
L78883 77002
L78939 77030
L78967 77086
L78967 77142
L78686 77199
" />
<path d="M79164 77002
L79276 77395
L79389 77114
L79501 77395
L79614 77002
" />
<path d="M80570 76805
L80289 76805
L80260 77086
L80289 77058
L80345 77030
L80485 77030
L80542 77058
L80570 77086
L80598 77142
L80598 77283
L80570 77339
L80542 77367
L80485 77395
L80345 77395
L80289 77367
L80260 77339
" />
<path d="M80851 77339
L80879 77367
L80851 77395
L80823 77367
L80851 77339
L80851 77395
" />
<path d="M81442 77395
L81104 77395
" />
<path d="M81273 77395
L81273 76805
L81217 76889
L81160 76946
L81104 76974
" />
<path d="M81695 77339
L81723 77367
L81695 77395
L81667 77367
L81695 77339
L81695 77395
" />
<path d="M82285 77395
L81948 77395
" />
<path d="M82117 77395
L82117 76805
L82060 76889
L82004 76946
L81948 76974
" />
<path d="M82651 76805
L82707 76805
L82763 76833
L82791 76861
L82820 76917
L82848 77030
L82848 77171
L82820 77283
L82791 77339
L82763 77367
L82707 77395
L82651 77395
L82595 77367
L82566 77339
L82538 77283
L82510 77171
L82510 77030
L82538 76917
L82566 76861
L82595 76833
L82651 76805
" />
</g>
<g style="fill:#000000; fill-opacity:0.0; 
stroke:#000000; stroke-width:39.3701; stroke-opacity:1; 
stroke-linecap:round; stroke-linejoin:round;">
</g>
<g style="fill:#000000; fill-opacity:0.0; 
stroke:#000000; stroke-width:59.0551; stroke-opacity:1; 
stroke-linecap:round; stroke-linejoin:round;">
<path d="M69685 75396
L112205 75396
" />
</g>
<g style="fill:#000000; fill-opacity:0.0; 
stroke:#000000; stroke-width:39.3701; stroke-opacity:1; 
stroke-linecap:round; stroke-linejoin:round;">
</g>
<g style="fill:#000000; fill-opacity:0.0; 
stroke:#000000; stroke-width:118.11; stroke-opacity:1; 
stroke-linecap:round; stroke-linejoin:round;">
<text x="103544" y="76321.7"
textLength="2336.9" font-size="787.402" lengthAdjust="spacingAndGlyphs"
text-anchor="start" opacity="0">Rev: </text>
<path d="M104099 76293
L103902 76012
" />
<path d="M103761 76293
L103761 75703
L103986 75703
L104042 75731
L104070 75759
L104099 75815
L104099 75899
L104070 75956
L104042 75984
L103986 76012
L103761 76012
" />
<path d="M104577 76265
L104520 76293
L104408 76293
L104352 76265
L104323 76209
L104323 75984
L104352 75928
L104408 75899
L104520 75899
L104577 75928
L104605 75984
L104605 76040
L104323 76096
" />
<path d="M104802 75899
L104942 76293
L105083 75899
" />
<path d="M105308 76237
L105336 76265
L105308 76293
L105280 76265
L105308 76237
L105308 76293
" />
<path d="M105308 75928
L105336 75956
L105308 75984
L105280 75956
L105308 75928
L105308 75984
" />
</g>
<g style="fill:#000000; fill-opacity:0.0; 
stroke:#000000; stroke-width:39.3701; stroke-opacity:1; 
stroke-linecap:round; stroke-linejoin:round;">
</g>
<g style="fill:#000000; fill-opacity:0.0; 
stroke:#000000; stroke-width:59.0551; stroke-opacity:1; 
stroke-linecap:round; stroke-linejoin:round;">
<text x="70079.6" y="76321.7"
textLength="3781.21" font-size="787.402" lengthAdjust="spacingAndGlyphs"
text-anchor="start" opacity="0">Size: A4</text>
<path d="M70221 76265
L70305 76293
L70446 76293
L70502 76265
L70530 76237
L70559 76181
L70559 76124
L70530 76068
L70502 76040
L70446 76012
L70334 75984
L70277 75956
L70249 75928
L70221 75871
L70221 75815
L70249 75759
L70277 75731
L70334 75703
L70474 75703
L70559 75731
" />
<path d="M70812 76293
L70812 75899
" />
<path d="M70812 75703
L70784 75731
L70812 75759
L70840 75731
L70812 75703
L70812 75759
" />
<path d="M71037 75899
L71346 75899
L71037 76293
L71346 76293
" />
<path d="M71796 76265
L71740 76293
L71627 76293
L71571 76265
L71543 76209
L71543 75984
L71571 75928
L71627 75899
L71740 75899
L71796 75928
L71824 75984
L71824 76040
L71543 76096
" />
<path d="M72077 76237
L72105 76265
L72077 76293
L72049 76265
L72077 76237
L72077 76293
" />
<path d="M72077 75928
L72105 75956
L72077 75984
L72049 75956
L72077 75928
L72077 75984
" />
<path d="M72780 76124
L73061 76124
" />
<path d="M72724 76293
L72921 75703
L73118 76293
" />
<path d="M73568 75899
L73568 76293
" />
<path d="M73427 75674
L73286 76096
L73652 76096
" />
</g>
<g style="fill:#000000; fill-opacity:0.0; 
stroke:#000000; stroke-width:39.3701; stroke-opacity:1; 
stroke-linecap:round; stroke-linejoin:round;">
</g>
<g style="fill:#000000; fill-opacity:0.0; 
stroke:#000000; stroke-width:59.0551; stroke-opacity:1; 
stroke-linecap:round; stroke-linejoin:round;">
<text x="103544" y="77424.1"
textLength="3349.27" font-size="787.402" lengthAdjust="spacingAndGlyphs"
text-anchor="start" opacity="0">Id: 1/1</text>
<path d="M103714 77395
L103714 76805
" />
<path d="M104248 77395
L104248 76805
" />
<path d="M104248 77367
L104192 77395
L104079 77395
L104023 77367
L103995 77339
L103967 77283
L103967 77114
L103995 77058
L104023 77030
L104079 77002
L104192 77002
L104248 77030
" />
<path d="M104529 77339
L104557 77367
L104529 77395
L104501 77367
L104529 77339
L104529 77395
" />
<path d="M104529 77030
L104557 77058
L104529 77086
L104501 77058
L104529 77030
L104529 77086
" />
<path d="M105570 77395
L105232 77395
" />
<path d="M105401 77395
L105401 76805
L105345 76889
L105289 76946
L105232 76974
" />
<path d="M106245 76777
L105739 77536
" />
<path d="M106751 77395
L106413 77395
" />
<path d="M106582 77395
L106582 76805
L106526 76889
L106470 76946
L106413 76974
" />
</g>
<g style="fill:#000000; fill-opacity:0.0; 
stroke:#000000; stroke-width:39.3701; stroke-opacity:1; 
stroke-linecap:round; stroke-linejoin:round;">
</g>
<g style="fill:#000000; fill-opacity:0.0; 
stroke:#000000; stroke-width:59.0551; stroke-opacity:1; 
stroke-linecap:round; stroke-linejoin:round;">
<path d="M69685 73821
L112205 73821
" />
</g>
<g style="fill:#000000; fill-opacity:0.0; 
stroke:#000000; stroke-width:39.3701; stroke-opacity:1; 
stroke-linecap:round; stroke-linejoin:round;">
</g>
<g style="fill:#000000; fill-opacity:0.0; 
stroke:#000000; stroke-width:157.48; stroke-opacity:1; 
stroke-linecap:round; stroke-linejoin:round;">
<text x="70079.6" y="74924.1"
textLength="3701.14" font-size="1049.87" lengthAdjust="spacingAndGlyphs"
text-anchor="start" opacity="0">Title: </text>
<path d="M70360 74099
L70810 74099
" />
<path d="M70486 74886
L70585 74099
" />
<path d="M70974 74886
L71039 74361
" />
<path d="M71072 74099
L71030 74136
L71063 74174
L71105 74136
L71072 74099
L71063 74174
" />
<path d="M71302 74361
L71602 74361
" />
<path d="M71447 74099
L71363 74774
L71391 74849
L71461 74886
L71536 74886
" />
<path d="M71911 74886
L71841 74849
L71813 74774
L71897 74099
" />
<path d="M72516 74849
L72436 74886
L72286 74886
L72216 74849
L72187 74774
L72225 74474
L72272 74399
L72352 74361
L72501 74361
L72572 74399
L72600 74474
L72591 74549
L72206 74624
" />
<path d="M72895 74811
L72928 74849
L72886 74886
L72853 74849
L72895 74811
L72886 74886
" />
<path d="M72947 74399
L72980 74436
L72937 74474
L72905 74436
L72947 74399
L72937 74474
" />
</g>
<g style="fill:#000000; fill-opacity:0.0; 
stroke:#000000; stroke-width:39.3701; stroke-opacity:1; 
stroke-linecap:round; stroke-linejoin:round;">
</g>
<g style="fill:#000000; fill-opacity:0.0; 
stroke:#000000; stroke-width:59.0551; stroke-opacity:1; 
stroke-linecap:round; stroke-linejoin:round;">
<text x="70079.6" y="73408.3"
textLength="10356.6" font-size="787.402" lengthAdjust="spacingAndGlyphs"
text-anchor="start" opacity="0">File: flipflop.kicad_pcb</text>
<path d="M70446 73070
L70249 73070
" />
<path d="M70249 73380
L70249 72789
L70530 72789
" />
<path d="M70755 73380
L70755 72986
" />
<path d="M70755 72789
L70727 72817
L70755 72845
L70784 72817
L70755 72789
L70755 72845
" />
<path d="M71121 73380
L71065 73352
L71037 73295
L71037 72789
" />
<path d="M71571 73352
L71515 73380
L71402 73380
L71346 73352
L71318 73295
L71318 73070
L71346 73014
L71402 72986
L71515 72986
L71571 73014
L71599 73070
L71599 73127
L71318 73183
" />
<path d="M71852 73323
L71880 73352
L71852 73380
L71824 73352
L71852 73323
L71852 73380
" />
<path d="M71852 73014
L71880 73042
L71852 73070
L71824 73042
L71852 73014
L71852 73070
" />
<path d="M72499 72986
L72724 72986
" />
<path d="M72583 73380
L72583 72874
L72611 72817
L72668 72789
L72724 72789
" />
<path d="M73005 73380
L72949 73352
L72921 73295
L72921 72789
" />
<path d="M73230 73380
L73230 72986
" />
<path d="M73230 72789
L73202 72817
L73230 72845
L73258 72817
L73230 72789
L73230 72845
" />
<path d="M73511 72986
L73511 73577
" />
<path d="M73511 73014
L73568 72986
L73680 72986
L73736 73014
L73764 73042
L73793 73099
L73793 73267
L73764 73323
L73736 73352
L73680 73380
L73568 73380
L73511 73352
" />
<path d="M73961 72986
L74186 72986
" />
<path d="M74046 73380
L74046 72874
L74074 72817
L74130 72789
L74186 72789
" />
<path d="M74467 73380
L74411 73352
L74383 73295
L74383 72789
" />
<path d="M74777 73380
L74721 73352
L74692 73323
L74664 73267
L74664 73099
L74692 73042
L74721 73014
L74777 72986
L74861 72986
L74917 73014
L74946 73042
L74974 73099
L74974 73267
L74946 73323
L74917 73352
L74861 73380
L74777 73380
" />
<path d="M75227 72986
L75227 73577
" />
<path d="M75227 73014
L75283 72986
L75395 72986
L75452 73014
L75480 73042
L75508 73099
L75508 73267
L75480 73323
L75452 73352
L75395 73380
L75283 73380
L75227 73352
" />
<path d="M75761 73323
L75789 73352
L75761 73380
L75733 73352
L75761 73323
L75761 73380
" />
<path d="M76042 73380
L76042 72789
" />
<path d="M76099 73155
L76267 73380
" />
<path d="M76267 72986
L76042 73211
" />
<path d="M76520 73380
L76520 72986
" />
<path d="M76520 72789
L76492 72817
L76520 72845
L76548 72817
L76520 72789
L76520 72845
" />
<path d="M77055 73352
L76998 73380
L76886 73380
L76830 73352
L76802 73323
L76773 73267
L76773 73099
L76802 73042
L76830 73014
L76886 72986
L76998 72986
L77055 73014
" />
<path d="M77561 73380
L77561 73070
L77533 73014
L77476 72986
L77364 72986
L77308 73014
" />
<path d="M77561 73352
L77505 73380
L77364 73380
L77308 73352
L77280 73295
L77280 73239
L77308 73183
L77364 73155
L77505 73155
L77561 73127
" />
<path d="M78095 73380
L78095 72789
" />
<path d="M78095 73352
L78039 73380
L77926 73380
L77870 73352
L77842 73323
L77814 73267
L77814 73099
L77842 73042
L77870 73014
L77926 72986
L78039 72986
L78095 73014
" />
<path d="M78236 73436
L78686 73436
" />
<path d="M78826 72986
L78826 73577
" />
<path d="M78826 73014
L78883 72986
L78995 72986
L79051 73014
L79079 73042
L79108 73099
L79108 73267
L79079 73323
L79051 73352
L78995 73380
L78883 73380
L78826 73352
" />
<path d="M79614 73352
L79557 73380
L79445 73380
L79389 73352
L79361 73323
L79332 73267
L79332 73099
L79361 73042
L79389 73014
L79445 72986
L79557 72986
L79614 73014
" />
<path d="M79867 73380
L79867 72789
" />
<path d="M79867 73014
L79923 72986
L80036 72986
L80092 73014
L80120 73042
L80148 73099
L80148 73267
L80120 73323
L80092 73352
L80036 73380
L79923 73380
L79867 73352
" />
</g>
<g style="fill:#000000; fill-opacity:0.0; 
stroke:#000000; stroke-width:39.3701; stroke-opacity:1; 
stroke-linecap:round; stroke-linejoin:round;">
</g>
<g style="fill:#000000; fill-opacity:0.0; 
stroke:#000000; stroke-width:59.0551; stroke-opacity:1; 
stroke-linecap:round; stroke-linejoin:round;">
<path d="M69685 71459
L112205 71459
" />
</g>
<g style="fill:#000000; fill-opacity:0.0; 
stroke:#000000; stroke-width:39.3701; stroke-opacity:1; 
stroke-linecap:round; stroke-linejoin:round;">
</g>
<g style="fill:#000000; fill-opacity:0.0; 
stroke:#000000; stroke-width:59.0551; stroke-opacity:1; 
stroke-linecap:round; stroke-linejoin:round;">
<text x="70079.6" y="72345.4"
textLength="3236.78" font-size="787.402" lengthAdjust="spacingAndGlyphs"
text-anchor="start" opacity="0">Sheet: </text>
<path d="M70221 72289
L70305 72317
L70446 72317
L70502 72289
L70530 72260
L70559 72204
L70559 72148
L70530 72092
L70502 72064
L70446 72036
L70334 72007
L70277 71979
L70249 71951
L70221 71895
L70221 71839
L70249 71782
L70277 71754
L70334 71726
L70474 71726
L70559 71754
" />
<path d="M70812 72317
L70812 71726
" />
<path d="M71065 72317
L71065 72007
L71037 71951
L70980 71923
L70896 71923
L70840 71951
L70812 71979
" />
<path d="M71571 72289
L71515 72317
L71402 72317
L71346 72289
L71318 72232
L71318 72007
L71346 71951
L71402 71923
L71515 71923
L71571 71951
L71599 72007
L71599 72064
L71318 72120
" />
<path d="M72077 72289
L72021 72317
L71908 72317
L71852 72289
L71824 72232
L71824 72007
L71852 71951
L71908 71923
L72021 71923
L72077 71951
L72105 72007
L72105 72064
L71824 72120
" />
<path d="M72274 71923
L72499 71923
" />
<path d="M72358 71726
L72358 72232
L72386 72289
L72443 72317
L72499 72317
" />
<path d="M72696 72260
L72724 72289
L72696 72317
L72668 72289
L72696 72260
L72696 72317
" />
<path d="M72696 71951
L72724 71979
L72696 72007
L72668 71979
L72696 71951
L72696 72007
" />
</g>
<g style="fill:#000000; fill-opacity:0.0; 
stroke:#000000; stroke-width:39.3701; stroke-opacity:1; 
stroke-linecap:round; stroke-linejoin:round;">
</g>
<g style="fill:#000000; fill-opacity:0.0; 
stroke:#000000; stroke-width:59.0551; stroke-opacity:1; 
stroke-linecap:round; stroke-linejoin:round;">
<path d="M77559 75396
L77559 76577
" />
</g>
<g style="fill:#000000; fill-opacity:0.0; 
stroke:#000000; stroke-width:39.3701; stroke-opacity:1; 
stroke-linecap:round; stroke-linejoin:round;">
</g>
<g style="fill:#000000; fill-opacity:0.0; 
stroke:#000000; stroke-width:59.0551; stroke-opacity:1; 
stroke-linecap:round; stroke-linejoin:round;">
<path d="M102756 75396
L102756 77955
" />
<g >
</g>
<g style="fill:#840000; fill-opacity:0.0; 
stroke:#840000; stroke-width:59.0551; stroke-opacity:1; 
stroke-linecap:round; stroke-linejoin:round;">
</g>
<g style="fill:#840000; fill-opacity:0.0; 
stroke:#840000; stroke-width:0; stroke-opacity:1; 
stroke-linecap:round; stroke-linejoin:round;">
</g>
<g style="fill:#840000; fill-opacity:1.0; 
stroke:#840000; stroke-width:0; stroke-opacity:1; 
stroke-linecap:round; stroke-linejoin:round;">
<path style="fill:#840000; fill-opacity:1.0; 
stroke:#840000; stroke-width:0; stroke-opacity:1; 
stroke-linecap:round; stroke-linejoin:round;fill-rule:evenodd;"
d="M 44442.5,30716.5
44757.5,30716.5
44757.5,31070.9
44442.5,31070.9
Z" /> 
<path style="fill:#840000; fill-opacity:1.0; 
stroke:#840000; stroke-width:0; stroke-opacity:1; 
stroke-linecap:round; stroke-linejoin:round;fill-rule:evenodd;"
d="M 44068.5,29929.1
44383.5,29929.1
44383.5,30283.5
44068.5,30283.5
Z" /> 
<path style="fill:#840000; fill-opacity:1.0; 
stroke:#840000; stroke-width:0; stroke-opacity:1; 
stroke-linecap:round; stroke-linejoin:round;fill-rule:evenodd;"
d="M 44816.5,29929.1
45131.5,29929.1
45131.5,30283.5
44816.5,30283.5
Z" /> 
</g>
<g >
</g>
<g style="fill:#848400; fill-opacity:1.0; 
stroke:#848400; stroke-width:0; stroke-opacity:1; 
stroke-linecap:round; stroke-linejoin:round;">
<circle cx="44993.7" cy="29300" r="167.323" /> 
<path style="fill:#848400; fill-opacity:1.0; 
stroke:#848400; stroke-width:0; stroke-opacity:1; 
stroke-linecap:round; stroke-linejoin:round;fill-rule:evenodd;"
d="M 44767.3,29467.3
44432.7,29467.3
44432.7,29132.7
44767.3,29132.7
Z" /> 
</g>
<g >
</g>
<g style="fill:#848400; fill-opacity:1.0; 
stroke:#848400; stroke-width:0; stroke-opacity:1; 
stroke-linecap:round; stroke-linejoin:round;">
<circle cx="46006.3" cy="29300" r="167.323" /> 
<path style="fill:#848400; fill-opacity:1.0; 
stroke:#848400; stroke-width:0; stroke-opacity:1; 
stroke-linecap:round; stroke-linejoin:round;fill-rule:evenodd;"
d="M 46232.7,29132.7
46567.3,29132.7
46567.3,29467.3
46232.7,29467.3
Z" /> 
</g>
<g >
</g>
<g style="fill:#840000; fill-opacity:1.0; 
stroke:#840000; stroke-width:0; stroke-opacity:1; 
stroke-linecap:round; stroke-linejoin:round;">
<path style="fill:#840000; fill-opacity:1.0; 
stroke:#840000; stroke-width:0; stroke-opacity:1; 
stroke-linecap:round; stroke-linejoin:round;fill-rule:evenodd;"
d="M 46116,27018.1
46123.6,27019.2
46131.1,27021.1
46138.4,27023.7
46145.4,27027
46152,27031
46158.2,27035.6
46163.9,27040.8
46169.1,27046.5
46173.7,27052.7
46177.7,27059.3
46181,27066.3
46183.6,27073.6
46185.5,27081.1
46186.6,27088.7
46187,27096.5
46187,27253.9
46186.6,27261.7
46185.5,27269.3
46183.6,27276.8
46181,27284.1
46177.7,27291.1
46173.7,27297.7
46169.1,27303.9
46163.9,27309.6
46158.2,27314.8
46152,27319.4
46145.4,27323.4
46138.4,27326.7
46131.1,27329.3
46123.6,27331.2
46116,27332.3
46108.3,27332.7
45891.7,27332.7
45884,27332.3
45876.4,27331.2
45868.9,27329.3
45861.6,27326.7
45854.6,27323.4
45848,27319.4
45841.8,27314.8
45836.1,27309.6
45830.9,27303.9
45826.3,27297.7
45822.3,27291.1
45819,27284.1
45816.4,27276.8
45814.5,27269.3
45813.4,27261.7
45813,27253.9
45813,27096.5
45813.4,27088.7
45814.5,27081.1
45816.4,27073.6
45819,27066.3
45822.3,27059.3
45826.3,27052.7
45830.9,27046.5
45836.1,27040.8
45841.8,27035.6
45848,27031
45854.6,27027
45861.6,27023.7
45868.9,27021.1
45876.4,27019.2
45884,27018.1
45891.7,27017.7
46108.3,27017.7
Z" /> 
<path style="fill:#840000; fill-opacity:1.0; 
stroke:#840000; stroke-width:0; stroke-opacity:1; 
stroke-linecap:round; stroke-linejoin:round;fill-rule:evenodd;"
d="M 46116,27667.7
46123.6,27668.8
46131.1,27670.7
46138.4,27673.3
46145.4,27676.6
46152,27680.6
46158.2,27685.2
46163.9,27690.4
46169.1,27696.1
46173.7,27702.3
46177.7,27708.9
46181,27715.9
46183.6,27723.2
46185.5,27730.7
46186.6,27738.3
46187,27746.1
46187,27903.5
46186.6,27911.3
46185.5,27918.9
46183.6,27926.4
46181,27933.7
46177.7,27940.7
46173.7,27947.3
46169.1,27953.5
46163.9,27959.2
46158.2,27964.4
46152,27969
46145.4,27973
46138.4,27976.3
46131.1,27978.9
46123.6,27980.8
46116,27981.9
46108.3,27982.3
45891.7,27982.3
45884,27981.9
45876.4,27980.8
45868.9,27978.9
45861.6,27976.3
45854.6,27973
45848,27969
45841.8,27964.4
45836.1,27959.2
45830.9,27953.5
45826.3,27947.3
45822.3,27940.7
45819,27933.7
45816.4,27926.4
45814.5,27918.9
45813.4,27911.3
45813,27903.5
45813,27746.1
45813.4,27738.3
45814.5,27730.7
45816.4,27723.2
45819,27715.9
45822.3,27708.9
45826.3,27702.3
45830.9,27696.1
45836.1,27690.4
45841.8,27685.2
45848,27680.6
45854.6,27676.6
45861.6,27673.3
45868.9,27670.7
45876.4,27668.8
45884,27667.7
45891.7,27667.3
46108.3,27667.3
Z" /> 
</g>
<g >
</g>
<g style="fill:#840000; fill-opacity:1.0; 
stroke:#840000; stroke-width:0; stroke-opacity:1; 
stroke-linecap:round; stroke-linejoin:round;">
<path style="fill:#840000; fill-opacity:1.0; 
stroke:#840000; stroke-width:0; stroke-opacity:1; 
stroke-linecap:round; stroke-linejoin:round;fill-rule:evenodd;"
d="M 45116,27667.7
45123.6,27668.8
45131.1,27670.7
45138.4,27673.3
45145.4,27676.6
45152,27680.6
45158.2,27685.2
45163.9,27690.4
45169.1,27696.1
45173.7,27702.3
45177.7,27708.9
45181,27715.9
45183.6,27723.2
45185.5,27730.7
45186.6,27738.3
45187,27746.1
45187,27903.5
45186.6,27911.3
45185.5,27918.9
45183.6,27926.4
45181,27933.7
45177.7,27940.7
45173.7,27947.3
45169.1,27953.5
45163.9,27959.2
45158.2,27964.4
45152,27969
45145.4,27973
45138.4,27976.3
45131.1,27978.9
45123.6,27980.8
45116,27981.9
45108.3,27982.3
44891.7,27982.3
44884,27981.9
44876.4,27980.8
44868.9,27978.9
44861.6,27976.3
44854.6,27973
44848,27969
44841.8,27964.4
44836.1,27959.2
44830.9,27953.5
44826.3,27947.3
44822.3,27940.7
44819,27933.7
44816.4,27926.4
44814.5,27918.9
44813.4,27911.3
44813,27903.5
44813,27746.1
44813.4,27738.3
44814.5,27730.7
44816.4,27723.2
44819,27715.9
44822.3,27708.9
44826.3,27702.3
44830.9,27696.1
44836.1,27690.4
44841.8,27685.2
44848,27680.6
44854.6,27676.6
44861.6,27673.3
44868.9,27670.7
44876.4,27668.8
44884,27667.7
44891.7,27667.3
45108.3,27667.3
Z" /> 
<path style="fill:#840000; fill-opacity:1.0; 
stroke:#840000; stroke-width:0; stroke-opacity:1; 
stroke-linecap:round; stroke-linejoin:round;fill-rule:evenodd;"
d="M 45116,27018.1
45123.6,27019.2
45131.1,27021.1
45138.4,27023.7
45145.4,27027
45152,27031
45158.2,27035.6
45163.9,27040.8
45169.1,27046.5
45173.7,27052.7
45177.7,27059.3
45181,27066.3
45183.6,27073.6
45185.5,27081.1
45186.6,27088.7
45187,27096.5
45187,27253.9
45186.6,27261.7
45185.5,27269.3
45183.6,27276.8
45181,27284.1
45177.7,27291.1
45173.7,27297.7
45169.1,27303.9
45163.9,27309.6
45158.2,27314.8
45152,27319.4
45145.4,27323.4
45138.4,27326.7
45131.1,27329.3
45123.6,27331.2
45116,27332.3
45108.3,27332.7
44891.7,27332.7
44884,27332.3
44876.4,27331.2
44868.9,27329.3
44861.6,27326.7
44854.6,27323.4
44848,27319.4
44841.8,27314.8
44836.1,27309.6
44830.9,27303.9
44826.3,27297.7
44822.3,27291.1
44819,27284.1
44816.4,27276.8
44814.5,27269.3
44813.4,27261.7
44813,27253.9
44813,27096.5
44813.4,27088.7
44814.5,27081.1
44816.4,27073.6
44819,27066.3
44822.3,27059.3
44826.3,27052.7
44830.9,27046.5
44836.1,27040.8
44841.8,27035.6
44848,27031
44854.6,27027
44861.6,27023.7
44868.9,27021.1
44876.4,27019.2
44884,27018.1
44891.7,27017.7
45108.3,27017.7
Z" /> 
</g>
<g >
</g>
<g style="fill:#840000; fill-opacity:1.0; 
stroke:#840000; stroke-width:0; stroke-opacity:1; 
stroke-linecap:round; stroke-linejoin:round;">
<path style="fill:#840000; fill-opacity:1.0; 
stroke:#840000; stroke-width:0; stroke-opacity:1; 
stroke-linecap:round; stroke-linejoin:round;fill-rule:evenodd;"
d="M 45961.7,28313.4
45969.3,28314.5
45976.8,28316.4
45984.1,28319
45991.1,28322.3
45997.7,28326.3
46003.9,28330.9
46009.6,28336.1
46014.8,28341.8
46019.4,28348
46023.4,28354.6
46026.7,28361.6
46029.3,28368.9
46031.2,28376.4
46032.3,28384
46032.7,28391.7
46032.7,28608.3
46032.3,28616
46031.2,28623.6
46029.3,28631.1
46026.7,28638.4
46023.4,28645.4
46019.4,28652
46014.8,28658.2
46009.6,28663.9
46003.9,28669.1
45997.7,28673.7
45991.1,28677.7
45984.1,28681
45976.8,28683.6
45969.3,28685.5
45961.7,28686.6
45953.9,28687
45796.5,28687
45788.7,28686.6
45781.1,28685.5
45773.6,28683.6
45766.3,28681
45759.3,28677.7
45752.7,28673.7
45746.5,28669.1
45740.8,28663.9
45735.6,28658.2
45731,28652
45727,28645.4
45723.7,28638.4
45721.1,28631.1
45719.2,28623.6
45718.1,28616
45717.7,28608.3
45717.7,28391.7
45718.1,28384
45719.2,28376.4
45721.1,28368.9
45723.7,28361.6
45727,28354.6
45731,28348
45735.6,28341.8
45740.8,28336.1
45746.5,28330.9
45752.7,28326.3
45759.3,28322.3
45766.3,28319
45773.6,28316.4
45781.1,28314.5
45788.7,28313.4
45796.5,28313
45953.9,28313
Z" /> 
<path style="fill:#840000; fill-opacity:1.0; 
stroke:#840000; stroke-width:0; stroke-opacity:1; 
stroke-linecap:round; stroke-linejoin:round;fill-rule:evenodd;"
d="M 46611.3,28313.4
46618.9,28314.5
46626.4,28316.4
46633.7,28319
46640.7,28322.3
46647.3,28326.3
46653.5,28330.9
46659.2,28336.1
46664.4,28341.8
46669,28348
46673,28354.6
46676.3,28361.6
46678.9,28368.9
46680.8,28376.4
46681.9,28384
46682.3,28391.7
46682.3,28608.3
46681.9,28616
46680.8,28623.6
46678.9,28631.1
46676.3,28638.4
46673,28645.4
46669,28652
46664.4,28658.2
46659.2,28663.9
46653.5,28669.1
46647.3,28673.7
46640.7,28677.7
46633.7,28681
46626.4,28683.6
46618.9,28685.5
46611.3,28686.6
46603.5,28687
46446.1,28687
46438.3,28686.6
46430.7,28685.5
46423.2,28683.6
46415.9,28681
46408.9,28677.7
46402.3,28673.7
46396.1,28669.1
46390.4,28663.9
46385.2,28658.2
46380.6,28652
46376.6,28645.4
46373.3,28638.4
46370.7,28631.1
46368.8,28623.6
46367.7,28616
46367.3,28608.3
46367.3,28391.7
46367.7,28384
46368.8,28376.4
46370.7,28368.9
46373.3,28361.6
46376.6,28354.6
46380.6,28348
46385.2,28341.8
46390.4,28336.1
46396.1,28330.9
46402.3,28326.3
46408.9,28322.3
46415.9,28319
46423.2,28316.4
46430.7,28314.5
46438.3,28313.4
46446.1,28313
46603.5,28313
Z" /> 
</g>
<g >
</g>
<g style="fill:#840000; fill-opacity:1.0; 
stroke:#840000; stroke-width:0; stroke-opacity:1; 
stroke-linecap:round; stroke-linejoin:round;">
<path style="fill:#840000; fill-opacity:1.0; 
stroke:#840000; stroke-width:0; stroke-opacity:1; 
stroke-linecap:round; stroke-linejoin:round;fill-rule:evenodd;"
d="M 44561.7,28313.4
44569.3,28314.5
44576.8,28316.4
44584.1,28319
44591.1,28322.3
44597.7,28326.3
44603.9,28330.9
44609.6,28336.1
44614.8,28341.8
44619.4,28348
44623.4,28354.6
44626.7,28361.6
44629.3,28368.9
44631.2,28376.4
44632.3,28384
44632.7,28391.7
44632.7,28608.3
44632.3,28616
44631.2,28623.6
44629.3,28631.1
44626.7,28638.4
44623.4,28645.4
44619.4,28652
44614.8,28658.2
44609.6,28663.9
44603.9,28669.1
44597.7,28673.7
44591.1,28677.7
44584.1,28681
44576.8,28683.6
44569.3,28685.5
44561.7,28686.6
44553.9,28687
44396.5,28687
44388.7,28686.6
44381.1,28685.5
44373.6,28683.6
44366.3,28681
44359.3,28677.7
44352.7,28673.7
44346.5,28669.1
44340.8,28663.9
44335.6,28658.2
44331,28652
44327,28645.4
44323.7,28638.4
44321.1,28631.1
44319.2,28623.6
44318.1,28616
44317.7,28608.3
44317.7,28391.7
44318.1,28384
44319.2,28376.4
44321.1,28368.9
44323.7,28361.6
44327,28354.6
44331,28348
44335.6,28341.8
44340.8,28336.1
44346.5,28330.9
44352.7,28326.3
44359.3,28322.3
44366.3,28319
44373.6,28316.4
44381.1,28314.5
44388.7,28313.4
44396.5,28313
44553.9,28313
Z" /> 
<path style="fill:#840000; fill-opacity:1.0; 
stroke:#840000; stroke-width:0; stroke-opacity:1; 
stroke-linecap:round; stroke-linejoin:round;fill-rule:evenodd;"
d="M 45211.3,28313.4
45218.9,28314.5
45226.4,28316.4
45233.7,28319
45240.7,28322.3
45247.3,28326.3
45253.5,28330.9
45259.2,28336.1
45264.4,28341.8
45269,28348
45273,28354.6
45276.3,28361.6
45278.9,28368.9
45280.8,28376.4
45281.9,28384
45282.3,28391.7
45282.3,28608.3
45281.9,28616
45280.8,28623.6
45278.9,28631.1
45276.3,28638.4
45273,28645.4
45269,28652
45264.4,28658.2
45259.2,28663.9
45253.5,28669.1
45247.3,28673.7
45240.7,28677.7
45233.7,28681
45226.4,28683.6
45218.9,28685.5
45211.3,28686.6
45203.5,28687
45046.1,28687
45038.3,28686.6
45030.7,28685.5
45023.2,28683.6
45015.9,28681
45008.9,28677.7
45002.3,28673.7
44996.1,28669.1
44990.4,28663.9
44985.2,28658.2
44980.6,28652
44976.6,28645.4
44973.3,28638.4
44970.7,28631.1
44968.8,28623.6
44967.7,28616
44967.3,28608.3
44967.3,28391.7
44967.7,28384
44968.8,28376.4
44970.7,28368.9
44973.3,28361.6
44976.6,28354.6
44980.6,28348
44985.2,28341.8
44990.4,28336.1
44996.1,28330.9
45002.3,28326.3
45008.9,28322.3
45015.9,28319
45023.2,28316.4
45030.7,28314.5
45038.3,28313.4
45046.1,28313
45203.5,28313
Z" /> 
</g>
<g >
</g>
<g style="fill:#840000; fill-opacity:1.0; 
stroke:#840000; stroke-width:0; stroke-opacity:1; 
stroke-linecap:round; stroke-linejoin:round;">
<path style="fill:#840000; fill-opacity:1.0; 
stroke:#840000; stroke-width:0; stroke-opacity:1; 
stroke-linecap:round; stroke-linejoin:round;fill-rule:evenodd;"
d="M 47316,27667.7
47323.6,27668.8
47331.1,27670.7
47338.4,27673.3
47345.4,27676.6
47352,27680.6
47358.2,27685.2
47363.9,27690.4
47369.1,27696.1
47373.7,27702.3
47377.7,27708.9
47381,27715.9
47383.6,27723.2
47385.5,27730.7
47386.6,27738.3
47387,27746.1
47387,27903.5
47386.6,27911.3
47385.5,27918.9
47383.6,27926.4
47381,27933.7
47377.7,27940.7
47373.7,27947.3
47369.1,27953.5
47363.9,27959.2
47358.2,27964.4
47352,27969
47345.4,27973
47338.4,27976.3
47331.1,27978.9
47323.6,27980.8
47316,27981.9
47308.3,27982.3
47091.7,27982.3
47084,27981.9
47076.4,27980.8
47068.9,27978.9
47061.6,27976.3
47054.6,27973
47048,27969
47041.8,27964.4
47036.1,27959.2
47030.9,27953.5
47026.3,27947.3
47022.3,27940.7
47019,27933.7
47016.4,27926.4
47014.5,27918.9
47013.4,27911.3
47013,27903.5
47013,27746.1
47013.4,27738.3
47014.5,27730.7
47016.4,27723.2
47019,27715.9
47022.3,27708.9
47026.3,27702.3
47030.9,27696.1
47036.1,27690.4
47041.8,27685.2
47048,27680.6
47054.6,27676.6
47061.6,27673.3
47068.9,27670.7
47076.4,27668.8
47084,27667.7
47091.7,27667.3
47308.3,27667.3
Z" /> 
<path style="fill:#840000; fill-opacity:1.0; 
stroke:#840000; stroke-width:0; stroke-opacity:1; 
stroke-linecap:round; stroke-linejoin:round;fill-rule:evenodd;"
d="M 47316,27018.1
47323.6,27019.2
47331.1,27021.1
47338.4,27023.7
47345.4,27027
47352,27031
47358.2,27035.6
47363.9,27040.8
47369.1,27046.5
47373.7,27052.7
47377.7,27059.3
47381,27066.3
47383.6,27073.6
47385.5,27081.1
47386.6,27088.7
47387,27096.5
47387,27253.9
47386.6,27261.7
47385.5,27269.3
47383.6,27276.8
47381,27284.1
47377.7,27291.1
47373.7,27297.7
47369.1,27303.9
47363.9,27309.6
47358.2,27314.8
47352,27319.4
47345.4,27323.4
47338.4,27326.7
47331.1,27329.3
47323.6,27331.2
47316,27332.3
47308.3,27332.7
47091.7,27332.7
47084,27332.3
47076.4,27331.2
47068.9,27329.3
47061.6,27326.7
47054.6,27323.4
47048,27319.4
47041.8,27314.8
47036.1,27309.6
47030.9,27303.9
47026.3,27297.7
47022.3,27291.1
47019,27284.1
47016.4,27276.8
47014.5,27269.3
47013.4,27261.7
47013,27253.9
47013,27096.5
47013.4,27088.7
47014.5,27081.1
47016.4,27073.6
47019,27066.3
47022.3,27059.3
47026.3,27052.7
47030.9,27046.5
47036.1,27040.8
47041.8,27035.6
47048,27031
47054.6,27027
47061.6,27023.7
47068.9,27021.1
47076.4,27019.2
47084,27018.1
47091.7,27017.7
47308.3,27017.7
Z" /> 
</g>
<g >
</g>
<g style="fill:#840000; fill-opacity:1.0; 
stroke:#840000; stroke-width:0; stroke-opacity:1; 
stroke-linecap:round; stroke-linejoin:round;">
<path style="fill:#840000; fill-opacity:1.0; 
stroke:#840000; stroke-width:0; stroke-opacity:1; 
stroke-linecap:round; stroke-linejoin:round;fill-rule:evenodd;"
d="M 43916,27667.7
43923.6,27668.8
43931.1,27670.7
43938.4,27673.3
43945.4,27676.6
43952,27680.6
43958.2,27685.2
43963.9,27690.4
43969.1,27696.1
43973.7,27702.3
43977.7,27708.9
43981,27715.9
43983.6,27723.2
43985.5,27730.7
43986.6,27738.3
43987,27746.1
43987,27903.5
43986.6,27911.3
43985.5,27918.9
43983.6,27926.4
43981,27933.7
43977.7,27940.7
43973.7,27947.3
43969.1,27953.5
43963.9,27959.2
43958.2,27964.4
43952,27969
43945.4,27973
43938.4,27976.3
43931.1,27978.9
43923.6,27980.8
43916,27981.9
43908.3,27982.3
43691.7,27982.3
43684,27981.9
43676.4,27980.8
43668.9,27978.9
43661.6,27976.3
43654.6,27973
43648,27969
43641.8,27964.4
43636.1,27959.2
43630.9,27953.5
43626.3,27947.3
43622.3,27940.7
43619,27933.7
43616.4,27926.4
43614.5,27918.9
43613.4,27911.3
43613,27903.5
43613,27746.1
43613.4,27738.3
43614.5,27730.7
43616.4,27723.2
43619,27715.9
43622.3,27708.9
43626.3,27702.3
43630.9,27696.1
43636.1,27690.4
43641.8,27685.2
43648,27680.6
43654.6,27676.6
43661.6,27673.3
43668.9,27670.7
43676.4,27668.8
43684,27667.7
43691.7,27667.3
43908.3,27667.3
Z" /> 
<path style="fill:#840000; fill-opacity:1.0; 
stroke:#840000; stroke-width:0; stroke-opacity:1; 
stroke-linecap:round; stroke-linejoin:round;fill-rule:evenodd;"
d="M 43916,27018.1
43923.6,27019.2
43931.1,27021.1
43938.4,27023.7
43945.4,27027
43952,27031
43958.2,27035.6
43963.9,27040.8
43969.1,27046.5
43973.7,27052.7
43977.7,27059.3
43981,27066.3
43983.6,27073.6
43985.5,27081.1
43986.6,27088.7
43987,27096.5
43987,27253.9
43986.6,27261.7
43985.5,27269.3
43983.6,27276.8
43981,27284.1
43977.7,27291.1
43973.7,27297.7
43969.1,27303.9
43963.9,27309.6
43958.2,27314.8
43952,27319.4
43945.4,27323.4
43938.4,27326.7
43931.1,27329.3
43923.6,27331.2
43916,27332.3
43908.3,27332.7
43691.7,27332.7
43684,27332.3
43676.4,27331.2
43668.9,27329.3
43661.6,27326.7
43654.6,27323.4
43648,27319.4
43641.8,27314.8
43636.1,27309.6
43630.9,27303.9
43626.3,27297.7
43622.3,27291.1
43619,27284.1
43616.4,27276.8
43614.5,27269.3
43613.4,27261.7
43613,27253.9
43613,27096.5
43613.4,27088.7
43614.5,27081.1
43616.4,27073.6
43619,27066.3
43622.3,27059.3
43626.3,27052.7
43630.9,27046.5
43636.1,27040.8
43641.8,27035.6
43648,27031
43654.6,27027
43661.6,27023.7
43668.9,27021.1
43676.4,27019.2
43684,27018.1
43691.7,27017.7
43908.3,27017.7
Z" /> 
</g>
<g >
</g>
<g style="fill:#840000; fill-opacity:1.0; 
stroke:#840000; stroke-width:0; stroke-opacity:1; 
stroke-linecap:round; stroke-linejoin:round;">
<path style="fill:#840000; fill-opacity:1.0; 
stroke:#840000; stroke-width:0; stroke-opacity:1; 
stroke-linecap:round; stroke-linejoin:round;fill-rule:evenodd;"
d="M 46242.5,30716.5
46557.5,30716.5
46557.5,31070.9
46242.5,31070.9
Z" /> 
<path style="fill:#840000; fill-opacity:1.0; 
stroke:#840000; stroke-width:0; stroke-opacity:1; 
stroke-linecap:round; stroke-linejoin:round;fill-rule:evenodd;"
d="M 45868.5,29929.1
46183.5,29929.1
46183.5,30283.5
45868.5,30283.5
Z" /> 
<path style="fill:#840000; fill-opacity:1.0; 
stroke:#840000; stroke-width:0; stroke-opacity:1; 
stroke-linecap:round; stroke-linejoin:round;fill-rule:evenodd;"
d="M 46616.5,29929.1
46931.5,29929.1
46931.5,30283.5
46616.5,30283.5
Z" /> 
</g>
<g >
</g>
<g style="fill:#840000; fill-opacity:1.0; 
stroke:#840000; stroke-width:0; stroke-opacity:1; 
stroke-linecap:round; stroke-linejoin:round;">
<path style="fill:#840000; fill-opacity:1.0; 
stroke:#840000; stroke-width:0; stroke-opacity:1; 
stroke-linecap:round; stroke-linejoin:round;fill-rule:evenodd;"
d="M 47309.3,28938.2
47317.7,28939.5
47325.9,28941.5
47333.8,28944.4
47341.5,28948
47348.7,28952.3
47355.5,28957.3
47361.8,28963
47367.5,28969.3
47372.5,28976.1
47376.8,28983.3
47380.5,28991
47383.3,28998.9
47385.4,29007.1
47386.6,29015.5
47387,29023.9
47387,29196.2
47386.6,29204.6
47385.4,29213
47383.3,29221.2
47380.5,29229.1
47376.8,29236.8
47372.5,29244
47367.5,29250.8
47361.8,29257.1
47355.5,29262.7
47348.7,29267.8
47341.5,29272.1
47333.8,29275.7
47325.9,29278.6
47317.7,29280.6
47309.3,29281.9
47300.9,29282.3
47099.1,29282.3
47090.7,29281.9
47082.3,29280.6
47074.1,29278.6
47066.2,29275.7
47058.5,29272.1
47051.3,29267.8
47044.5,29262.7
47038.2,29257.1
47032.5,29250.8
47027.5,29244
47023.2,29236.8
47019.5,29229.1
47016.7,29221.2
47014.6,29213
47013.4,29204.6
47013,29196.2
47013,29023.9
47013.4,29015.5
47014.6,29007.1
47016.7,28998.9
47019.5,28991
47023.2,28983.3
47027.5,28976.1
47032.5,28969.3
47038.2,28963
47044.5,28957.3
47051.3,28952.3
47058.5,28948
47066.2,28944.4
47074.1,28941.5
47082.3,28939.5
47090.7,28938.2
47099.1,28937.8
47300.9,28937.8
Z" /> 
<path style="fill:#840000; fill-opacity:1.0; 
stroke:#840000; stroke-width:0; stroke-opacity:1; 
stroke-linecap:round; stroke-linejoin:round;fill-rule:evenodd;"
d="M 47309.3,28318.1
47317.7,28319.4
47325.9,28321.4
47333.8,28324.3
47341.5,28327.9
47348.7,28332.2
47355.5,28337.3
47361.8,28342.9
47367.5,28349.2
47372.5,28356
47376.8,28363.2
47380.5,28370.9
47383.3,28378.8
47385.4,28387
47386.6,28395.4
47387,28403.8
47387,28576.1
47386.6,28584.5
47385.4,28592.9
47383.3,28601.1
47380.5,28609
47376.8,28616.7
47372.5,28623.9
47367.5,28630.7
47361.8,28637
47355.5,28642.7
47348.7,28647.7
47341.5,28652
47333.8,28655.6
47325.9,28658.5
47317.7,28660.5
47309.3,28661.8
47300.9,28662.2
47099.1,28662.2
47090.7,28661.8
47082.3,28660.5
47074.1,28658.5
47066.2,28655.6
47058.5,28652
47051.3,28647.7
47044.5,28642.7
47038.2,28637
47032.5,28630.7
47027.5,28623.9
47023.2,28616.7
47019.5,28609
47016.7,28601.1
47014.6,28592.9
47013.4,28584.5
47013,28576.1
47013,28403.8
47013.4,28395.4
47014.6,28387
47016.7,28378.8
47019.5,28370.9
47023.2,28363.2
47027.5,28356
47032.5,28349.2
47038.2,28342.9
47044.5,28337.3
47051.3,28332.2
47058.5,28327.9
47066.2,28324.3
47074.1,28321.4
47082.3,28319.4
47090.7,28318.1
47099.1,28317.7
47300.9,28317.7
Z" /> 
</g>
<g >
</g>
<g style="fill:#840000; fill-opacity:1.0; 
stroke:#840000; stroke-width:0; stroke-opacity:1; 
stroke-linecap:round; stroke-linejoin:round;">
<path style="fill:#840000; fill-opacity:1.0; 
stroke:#840000; stroke-width:0; stroke-opacity:1; 
stroke-linecap:round; stroke-linejoin:round;fill-rule:evenodd;"
d="M 43909.3,28938.2
43917.7,28939.5
43925.9,28941.5
43933.8,28944.4
43941.5,28948
43948.7,28952.3
43955.5,28957.3
43961.8,28963
43967.5,28969.3
43972.5,28976.1
43976.8,28983.3
43980.5,28991
43983.3,28998.9
43985.4,29007.1
43986.6,29015.5
43987,29023.9
43987,29196.2
43986.6,29204.6
43985.4,29213
43983.3,29221.2
43980.5,29229.1
43976.8,29236.8
43972.5,29244
43967.5,29250.8
43961.8,29257.1
43955.5,29262.7
43948.7,29267.8
43941.5,29272.1
43933.8,29275.7
43925.9,29278.6
43917.7,29280.6
43909.3,29281.9
43900.9,29282.3
43699.1,29282.3
43690.7,29281.9
43682.3,29280.6
43674.1,29278.6
43666.2,29275.7
43658.5,29272.1
43651.3,29267.8
43644.5,29262.7
43638.2,29257.1
43632.5,29250.8
43627.5,29244
43623.2,29236.8
43619.5,29229.1
43616.7,29221.2
43614.6,29213
43613.4,29204.6
43613,29196.2
43613,29023.9
43613.4,29015.5
43614.6,29007.1
43616.7,28998.9
43619.5,28991
43623.2,28983.3
43627.5,28976.1
43632.5,28969.3
43638.2,28963
43644.5,28957.3
43651.3,28952.3
43658.5,28948
43666.2,28944.4
43674.1,28941.5
43682.3,28939.5
43690.7,28938.2
43699.1,28937.8
43900.9,28937.8
Z" /> 
<path style="fill:#840000; fill-opacity:1.0; 
stroke:#840000; stroke-width:0; stroke-opacity:1; 
stroke-linecap:round; stroke-linejoin:round;fill-rule:evenodd;"
d="M 43909.3,28318.1
43917.7,28319.4
43925.9,28321.4
43933.8,28324.3
43941.5,28327.9
43948.7,28332.2
43955.5,28337.3
43961.8,28342.9
43967.5,28349.2
43972.5,28356
43976.8,28363.2
43980.5,28370.9
43983.3,28378.8
43985.4,28387
43986.6,28395.4
43987,28403.8
43987,28576.1
43986.6,28584.5
43985.4,28592.9
43983.3,28601.1
43980.5,28609
43976.8,28616.7
43972.5,28623.9
43967.5,28630.7
43961.8,28637
43955.5,28642.7
43948.7,28647.7
43941.5,28652
43933.8,28655.6
43925.9,28658.5
43917.7,28660.5
43909.3,28661.8
43900.9,28662.2
43699.1,28662.2
43690.7,28661.8
43682.3,28660.5
43674.1,28658.5
43666.2,28655.6
43658.5,28652
43651.3,28647.7
43644.5,28642.7
43638.2,28637
43632.5,28630.7
43627.5,28623.9
43623.2,28616.7
43619.5,28609
43616.7,28601.1
43614.6,28592.9
43613.4,28584.5
43613,28576.1
43613,28403.8
43613.4,28395.4
43614.6,28387
43616.7,28378.8
43619.5,28370.9
43623.2,28363.2
43627.5,28356
43632.5,28349.2
43638.2,28342.9
43644.5,28337.3
43651.3,28332.2
43658.5,28327.9
43666.2,28324.3
43674.1,28321.4
43682.3,28319.4
43690.7,28318.1
43699.1,28317.7
43900.9,28317.7
Z" /> 
</g>
<g >
</g>
<g style="fill:#C2C2C2; fill-opacity:1.0; 
stroke:#C2C2C2; stroke-width:0; stroke-opacity:1; 
stroke-linecap:round; stroke-linejoin:round;">
<circle cx="45999.9" cy="29703.5" r="157.48" /> 
</g>
<g style="fill:#C2C2C2; fill-opacity:1.0; 
stroke:#C2C2C2; stroke-width:39.3701; stroke-opacity:1; 
stroke-linecap:round; stroke-linejoin:round;">
</g>
<g style="fill:#C2C2C2; fill-opacity:1.0; 
stroke:#C2C2C2; stroke-width:0; stroke-opacity:1; 
stroke-linecap:round; stroke-linejoin:round;">
<circle cx="45000.1" cy="29703.5" r="157.48" /> 
</g>
<g style="fill:#C2C2C2; fill-opacity:1.0; 
stroke:#C2C2C2; stroke-width:39.3701; stroke-opacity:1; 
stroke-linecap:round; stroke-linejoin:round;">
</g>
<g style="fill:#C2C2C2; fill-opacity:1.0; 
stroke:#C2C2C2; stroke-width:0; stroke-opacity:1; 
stroke-linecap:round; stroke-linejoin:round;">
<circle cx="44400" cy="27200" r="157.48" /> 
</g>
<g style="fill:#C2C2C2; fill-opacity:1.0; 
stroke:#C2C2C2; stroke-width:39.3701; stroke-opacity:1; 
stroke-linecap:round; stroke-linejoin:round;">
</g>
<g style="fill:#C2C2C2; fill-opacity:1.0; 
stroke:#C2C2C2; stroke-width:0; stroke-opacity:1; 
stroke-linecap:round; stroke-linejoin:round;">
<circle cx="46600" cy="27175.2" r="157.48" /> 
</g>
<g style="fill:#C2C2C2; fill-opacity:1.0; 
stroke:#C2C2C2; stroke-width:39.3701; stroke-opacity:1; 
stroke-linecap:round; stroke-linejoin:round;">
</g>
<g >
</g>
<g style="fill:#840000; fill-opacity:1.0; 
stroke:#840000; stroke-width:39.3701; stroke-opacity:1; 
stroke-linecap:round; stroke-linejoin:round;">
</g>
<g style="fill:#840000; fill-opacity:1.0; 
stroke:#840000; stroke-width:98.4252; stroke-opacity:1; 
stroke-linecap:round; stroke-linejoin:round;">
</g>
<g style="fill:#840000; fill-opacity:0.0; 
stroke:#840000; stroke-width:98.4252; stroke-opacity:1; 
stroke-linecap:round; stroke-linejoin:round;">
<path d="M43800 27824
L44324 27824
" />
<path d="M44475 27975
L44475 28500
" />
<path d="M44324 27824
L44475 27975
" />
<path d="M43800 29110
L44189 29110
" />
<path d="M44475 28824
L44475 28500
" />
<path d="M44189 29110
L44475 28824
" />
<path d="M44225 29536
L43800 29110
" />
<path d="M44225 30106
L44225 29536
" />
<path d="M46774 29536
L47200 29110
" />
<path d="M46774 30106
L46774 29536
" />
<path d="M47200 29110
L46810 29110
" />
<path d="M46524 28824
L46524 28500
" />
<path d="M46810 29110
L46524 28824
" />
<path d="M46524 28500
L46524 27975
" />
<path d="M46675 27824
L47200 27824
" />
<path d="M46524 27975
L46675 27824
" />
<path d="M44600 29300
L44600 30893
" />
<path d="M46400 29300
L46400 30893
" />
<path d="M45493 30893
L46400 30893
" />
<path d="M44600 30893
L45493 30893
" />
<path d="M45000 27175
L45475 27175
" />
<path d="M45475 27175
L46000 27175
" />
<path d="M45475 30875
L45493 30893
" />
<path d="M45475 27175
L45475 30875
" />
<path d="M43485 28174
L43800 28489
" />
<path d="M43485 27660
L43485 28174
" />
<path d="M44714 27539
L43606 27539
" />
<path d="M43606 27539
L43485 27660
" />
<path d="M45000 27824
L44714 27539
" />
<path d="M45124 29168
L44993 29300
" />
<path d="M45124 28500
L45124 29168
" />
<path d="M46025 29729
L45999 29703
" />
<path d="M46025 30106
L46025 29729
" />
<path d="M45875 29168
L46006 29300
" />
<path d="M45875 28500
L45875 29168
" />
<path d="M44974 29729
L45000 29703
" />
<path d="M44974 30106
L44974 29729
" />
<path d="M44375 27175
L44400 27200
" />
<path d="M43800 27175
L44375 27175
" />
<path d="M47199 27175
L47200 27175
" />
<path d="M46600 27175
L47199 27175
" />
<path d="M47514 28174
L47200 28489
" />
<path d="M47514 27660
L47514 28174
" />
<path d="M47315 27460
L47514 27660
" />
<path d="M46364 27460
L47315 27460
" />
<path d="M46000 27824
L46364 27460
" />
</g>
<g >
</g>
</g>
<g style="fill:#FFFFFF; fill-opacity:0.0; 
stroke:#FFFFFF; stroke-width:98.4252; stroke-opacity:1; 
stroke-linecap:round; stroke-linejoin:round;">
</g>
<g style="fill:#FFFFFF; fill-opacity:1.0; 
stroke:#FFFFFF; stroke-width:0; stroke-opacity:1; 
stroke-linecap:round; stroke-linejoin:round;">
<circle cx="45999.9" cy="29703.5" r="78.7402" /> 
</g>
<g style="fill:#FFFFFF; fill-opacity:1.0; 
stroke:#FFFFFF; stroke-width:39.3701; stroke-opacity:1; 
stroke-linecap:round; stroke-linejoin:round;">
</g>
<g style="fill:#FFFFFF; fill-opacity:1.0; 
stroke:#FFFFFF; stroke-width:0; stroke-opacity:1; 
stroke-linecap:round; stroke-linejoin:round;">
<circle cx="45000.1" cy="29703.5" r="78.7402" /> 
</g>
<g style="fill:#FFFFFF; fill-opacity:1.0; 
stroke:#FFFFFF; stroke-width:39.3701; stroke-opacity:1; 
stroke-linecap:round; stroke-linejoin:round;">
</g>
<g style="fill:#FFFFFF; fill-opacity:1.0; 
stroke:#FFFFFF; stroke-width:0; stroke-opacity:1; 
stroke-linecap:round; stroke-linejoin:round;">
<circle cx="44400" cy="27200" r="78.7402" /> 
</g>
<g style="fill:#FFFFFF; fill-opacity:1.0; 
stroke:#FFFFFF; stroke-width:39.3701; stroke-opacity:1; 
stroke-linecap:round; stroke-linejoin:round;">
</g>
<g style="fill:#FFFFFF; fill-opacity:1.0; 
stroke:#FFFFFF; stroke-width:0; stroke-opacity:1; 
stroke-linecap:round; stroke-linejoin:round;">
<circle cx="46600" cy="27175.2" r="78.7402" /> 
</g>
<g style="fill:#FFFFFF; fill-opacity:1.0; 
stroke:#FFFFFF; stroke-width:39.3701; stroke-opacity:1; 
stroke-linecap:round; stroke-linejoin:round;">
</g>
<g style="fill:#FFFFFF; fill-opacity:1.0; 
stroke:#FFFFFF; stroke-width:0; stroke-opacity:1; 
stroke-linecap:round; stroke-linejoin:round;">
<circle cx="44993.7" cy="29300" r="98.4252" /> 
</g>
<g style="fill:#FFFFFF; fill-opacity:1.0; 
stroke:#FFFFFF; stroke-width:39.3701; stroke-opacity:1; 
stroke-linecap:round; stroke-linejoin:round;">
</g>
<g style="fill:#FFFFFF; fill-opacity:1.0; 
stroke:#FFFFFF; stroke-width:0; stroke-opacity:1; 
stroke-linecap:round; stroke-linejoin:round;">
<circle cx="44600" cy="29300" r="98.4252" /> 
</g>
<g style="fill:#FFFFFF; fill-opacity:1.0; 
stroke:#FFFFFF; stroke-width:39.3701; stroke-opacity:1; 
stroke-linecap:round; stroke-linejoin:round;">
</g>
<g style="fill:#FFFFFF; fill-opacity:1.0; 
stroke:#FFFFFF; stroke-width:0; stroke-opacity:1; 
stroke-linecap:round; stroke-linejoin:round;">
<circle cx="46006.3" cy="29300" r="98.4252" /> 
</g>
<g style="fill:#FFFFFF; fill-opacity:1.0; 
stroke:#FFFFFF; stroke-width:39.3701; stroke-opacity:1; 
stroke-linecap:round; stroke-linejoin:round;">
</g>
<g style="fill:#FFFFFF; fill-opacity:1.0; 
stroke:#FFFFFF; stroke-width:0; stroke-opacity:1; 
stroke-linecap:round; stroke-linejoin:round;">
<circle cx="46400" cy="29300" r="98.4252" /> 
</g>
<g style="fill:#FFFFFF; fill-opacity:1.0; 
stroke:#FFFFFF; stroke-width:39.3701; stroke-opacity:1; 
stroke-linecap:round; stroke-linejoin:round;">
</g>
<g style="fill:#000000; fill-opacity:1.0; 
stroke:#000000; stroke-width:39.3701; stroke-opacity:1; 
stroke-linecap:round; stroke-linejoin:round;">
</g>
<g style="fill:#C2C200; fill-opacity:1.0; 
stroke:#C2C200; stroke-width:39.3701; stroke-opacity:1; 
stroke-linecap:round; stroke-linejoin:round;">
</g>
<g style="fill:#C2C200; fill-opacity:0.0; 
stroke:#C2C200; stroke-width:39.3701; stroke-opacity:1; 
stroke-linecap:round; stroke-linejoin:round;">
<path d="M47600 26800
L47600 31300
" />
<path d="M43400 26800
L47600 26800
" />
<path d="M43400 31300
L43400 26800
" />
<path d="M47600 31300
L43400 31300
" />
<g >
</g>
<g >
</g>
<g >
</g>
<g >
</g>
<g >
</g>
<g >
</g>
<g >
</g>
<g >
</g>
<g >
</g>
<g >
</g>
<g >
</g>
<g >
</g>
<g >
</g>
</g> 
</svg>
